# Blender v2.79 (sub 0) OBJ File: 'skybox.blend'
# www.blender.org
o Cube_Cube.001
v -1.000000 -1.000000 1.000000
v -1.000000 1.000000 1.000000
v -1.000000 -1.000000 -1.000000
v -1.000000 1.000000 -1.000000
v 1.000000 -1.000000 1.000000
v 1.000000 1.000000 1.000000
v 1.000000 -1.000000 -1.000000
v 1.000000 1.000000 -1.000000
vt 0.749978 0.333525
vt 0.999935 0.666476
vt 0.999935 0.333525
vt 0.499000 0.333525
vt 0.749978 0.666476
vt 0.250065 0.333524
vt 0.499000 0.666475
vt 0.000108 0.333524
vt 0.250065 0.666475
vt 0.250065 0.000573
vt 0.499000 0.000573
vt 0.499000 0.999427
vt 0.000108 0.666475
vt 0.250065 0.999427
vn 1.0000 0.0000 0.0000
vn 0.0000 0.0000 1.0000
vn -1.0000 0.0000 0.0000
vn 0.0000 0.0000 -1.0000
vn 0.0000 1.0000 0.0000
vn 0.0000 -1.0000 0.0000
s off
f 3/1/1 2/2/1 1/3/1
f 7/4/2 4/5/2 3/1/2
f 5/6/3 8/7/3 7/4/3
f 1/8/4 6/9/4 5/6/4
f 1/10/5 7/4/5 3/11/5
f 6/9/6 4/12/6 8/7/6
f 3/1/1 4/5/1 2/2/1
f 7/4/2 8/7/2 4/5/2
f 5/6/3 6/9/3 8/7/3
f 1/8/4 2/13/4 6/9/4
f 1/10/5 5/6/5 7/4/5
f 6/9/6 2/14/6 4/12/6
