# Blender v2.79 (sub 0) OBJ File: 'Tree-LOD1.blend'
# www.blender.org
o Icosphere_Icosphere.005
v 1.019284 1.726051 0.383378
v 1.390234 1.768643 0.536186
v 1.638473 1.768643 0.194522
v 1.390234 1.768643 -0.147142
v 0.988586 1.768643 -0.016636
v 1.168212 1.870628 0.536186
v 1.569860 1.870628 0.405680
v 1.168212 1.870628 -0.147142
v 0.919973 1.870628 0.194522
v 1.539162 1.913221 0.005666
v -1.348849 2.798379 0.657358
v -1.109374 2.867457 0.484687
v -1.109374 2.867457 1.178005
v -0.779678 2.867456 0.938466
v -1.439069 2.867457 0.938466
v -0.869898 2.936534 0.657358
v 0.298797 2.735632 0.295107
v 0.946261 2.820079 -0.024195
v 0.570031 2.820080 -0.297543
v 0.270691 2.773583 -0.119436
v 0.570031 2.820080 0.493632
v 0.200024 2.866576 0.098045
v 0.841264 2.904527 0.295107
v -0.750482 2.906353 -0.150424
v -1.273616 3.015806 0.229651
v -0.550666 3.015806 0.464555
v -0.103848 3.015806 -0.150424
v -0.550666 3.015806 -0.765403
v -1.273616 3.015806 -0.530499
v -0.950297 3.192906 0.464555
v -0.227347 3.192906 0.229651
v -0.227347 3.192906 -0.530499
v -0.950297 3.192906 -0.765403
v -1.397116 3.192906 -0.150424
v -0.750482 3.302360 -0.150424
v 0.708158 2.429798 -1.001066
v 0.197439 2.538976 -0.630012
v 0.903231 2.538976 -0.400682
v 1.339446 2.538976 -1.001066
v 0.903231 2.538976 -1.601451
v 0.197439 2.538976 -1.372121
v 0.513085 2.715631 -0.400682
v 1.218877 2.715631 -0.630012
v 1.218877 2.715631 -1.372121
v 0.513085 2.715631 -1.601451
v 0.076870 2.715631 -1.001066
v 0.708158 2.824809 -1.001066
v 0.261803 2.510483 1.221574
v 0.607546 2.559470 1.370175
v 0.842548 2.559470 1.046731
v 0.607546 2.559470 0.723286
v 0.227315 2.559470 0.846832
v 0.397363 2.673271 1.370175
v 0.777594 2.673271 0.846832
v 0.397363 2.673271 0.723286
v 0.162361 2.673271 1.046731
v 0.743107 2.722257 1.221574
v 0.015259 0.213799 -0.372420
v 0.013376 2.331955 -0.242805
v -0.219690 2.331955 -0.101976
v -0.197566 0.270987 0.292522
v 0.237637 0.224374 0.291339
v -0.016098 2.313786 0.153196
v 0.174533 2.329736 -0.057129
v -0.365374 0.195314 -0.116780
v 0.388391 0.196714 -0.118481
v 0.236606 0.018771 0.495302
v -0.523315 0.005519 0.195874
v -0.292985 0.003036 -0.510495
v 0.239787 -0.001845 -0.499175
v 0.608299 0.026437 -0.013797
v -0.496108 -0.017485 0.766433
v -0.737245 0.077411 -0.387929
v -0.016480 0.108607 -0.643722
v 0.915830 -0.027075 -0.211244
v 0.009452 -0.042978 -0.025250
v 0.265422 1.321710 -0.101976
v 0.250198 1.565529 -0.101976
v 0.186909 1.445052 0.106495
v 0.844898 1.543049 0.192256
v 0.992095 1.686199 0.229254
v 0.734650 2.386891 0.616552
v -0.221464 2.156924 -0.132406
v -0.104912 2.137965 0.155399
v -0.822534 2.537949 0.441246
v -0.722519 2.448197 0.527162
v -0.986632 2.690669 0.584953
v 0.005469 2.157052 -0.257714
v 0.201273 2.116834 -0.085285
v 0.432070 2.354068 -0.710190
v 0.104528 2.112592 0.199653
v 0.536816 2.427624 0.576910
v -0.005298 2.397651 -0.020367
v 0.540584 2.300732 0.594702
v 0.180047 -0.170629 -0.926769
v 0.695166 0.025113 0.743013
v -1.047478 -0.067061 -0.289497
v -0.599296 2.541898 -0.883514
v 0.586930 2.361702 -0.733251
v 0.474761 2.397526 -0.714153
v -0.544180 2.847252 -0.182043
v 0.600883 2.748483 0.102254
vt 0.007223 0.747607
vt 0.097360 0.729072
vt 0.037188 0.697851
vt 0.929435 0.000000
vt 0.877374 0.004295
vt 0.929435 0.053775
vt 0.037189 0.808370
vt 0.097360 0.797377
vt 0.002066 0.787518
vt 0.451072 0.941465
vt 0.436831 0.977319
vt 0.460665 0.999375
vt 0.460665 0.883036
vt 0.436831 0.905418
vt 0.889011 0.044135
vt 0.325779 0.916639
vt 0.345276 0.880225
vt 0.335114 0.848057
vt 0.929435 0.035915
vt 0.950311 0.071884
vt 0.950311 0.000000
vt 0.693876 0.713001
vt 0.698600 0.751839
vt 0.728970 0.691507
vt 0.693876 0.783574
vt 0.728969 0.805696
vt 0.345276 0.948017
vt 0.789884 0.707389
vt 0.789884 0.777963
vt 0.595647 0.859421
vt 0.678976 0.814056
vt 0.608960 0.814247
vt 0.678976 0.875386
vt 0.737514 0.900043
vt 0.691322 0.902115
vt 0.737514 0.947745
vt 0.702662 0.936869
vt 0.640600 0.936916
vt 0.655621 0.965084
vt 0.655620 0.903801
vt 0.878983 0.810490
vt 0.795185 0.850713
vt 0.878983 0.874287
vt 0.808659 0.806076
vt 0.808659 0.889587
vt 0.631262 0.697558
vt 0.691322 0.772194
vt 0.691322 0.702318
vt 0.217982 0.931209
vt 0.271027 0.931209
vt 0.240913 0.883553
vt 0.590367 0.754701
vt 0.611321 0.793857
vt 0.593714 0.713271
vt 1.000000 0.877447
vt 0.977447 0.900502
vt 0.983783 0.956091
vt 0.950311 0.037019
vt 0.970175 0.074036
vt 0.970175 0.000000
vt 0.882053 0.940886
vt 0.900136 0.973053
vt 0.900136 0.903231
vt 0.290597 0.667263
vt 0.230193 0.657209
vt 0.290597 0.739949
vt 0.210249 0.757296
vt 0.190862 0.693436
vt 0.696054 0.391290
vt 0.657302 0.291922
vt 0.590367 0.380135
vt 0.657304 0.490850
vt 0.765611 0.348118
vt 0.739061 0.194207
vt 0.645704 0.201192
vt 0.739061 0.290622
vt 0.765611 0.471064
vt 0.594605 0.453014
vt 0.855507 0.186958
vt 0.830945 0.251494
vt 0.872775 0.291193
vt 0.872775 0.081787
vt 0.830945 0.122075
vt 0.666984 0.272374
vt 0.843220 0.612906
vt 0.877240 0.547282
vt 0.860021 0.489461
vt 0.921096 0.356583
vt 0.957793 0.421310
vt 0.957793 0.291922
vt 0.005094 0.531192
vt 0.000000 0.601675
vt 0.067764 0.492316
vt 0.005094 0.658221
vt 0.067762 0.697851
vt 0.877240 0.669304
vt 0.177407 0.520903
vt 0.106495 0.595317
vt 0.177407 0.647932
vt 0.749070 0.096901
vt 0.711052 0.000000
vt 0.645704 0.086120
vt 0.711053 0.194207
vt 0.816790 0.054863
vt 0.782668 0.805696
vt 0.691322 0.812948
vt 0.782668 0.900043
vt 0.816790 0.174890
vt 0.649540 0.157445
vt 0.897376 0.184462
vt 0.872775 0.247466
vt 0.914234 0.286224
vt 0.914234 0.081787
vt 0.872775 0.121118
vt 0.711903 0.882748
vt 0.887260 0.412438
vt 0.921096 0.348418
vt 0.903663 0.291922
vt 0.146082 0.895246
vt 0.182418 0.958445
vt 0.182418 0.832128
vt 0.595050 0.528694
vt 0.590367 0.597614
vt 0.656522 0.490850
vt 0.595050 0.652708
vt 0.656520 0.691507
vt 0.921096 0.467545
vt 0.763563 0.518759
vt 0.694513 0.591474
vt 0.763563 0.642773
vt 0.798307 0.738687
vt 0.882053 0.721064
vt 0.825089 0.691507
vt 0.540745 0.883036
vt 0.490558 0.889090
vt 0.540745 0.934963
vt 0.825090 0.796133
vt 0.882053 0.785726
vt 0.790450 0.777201
vt 0.427748 0.938350
vt 0.411409 0.972287
vt 0.436831 0.993172
vt 0.436831 0.883036
vt 0.411409 0.904220
vt 0.500704 0.928248
vt 0.737514 0.964968
vt 0.758833 0.930712
vt 0.746351 0.900043
vt 0.799893 0.943880
vt 0.839926 0.950669
vt 0.789885 0.904606
vt 0.190173 0.788359
vt 0.189084 0.826030
vt 0.227901 0.776627
vt 0.190173 0.855169
vt 0.224723 0.876613
vt 0.758833 0.994890
vt 0.839926 0.899357
vt 0.282390 0.850358
vt 0.030000 0.326430
vt 0.144226 0.401858
vt 0.054636 0.303837
vt 0.168621 0.453923
vt 0.882519 0.489461
vt 0.877240 0.560062
vt 0.915354 0.529284
vt 0.516532 0.027604
vt 0.509696 0.122809
vt 0.628839 0.030649
vt 0.765611 0.617156
vt 0.792825 0.664343
vt 0.843220 0.625438
vt 0.080156 0.848320
vt 0.095486 0.964810
vt 0.095486 0.808370
vt 0.279985 0.279997
vt 0.311077 0.336011
vt 0.353477 0.276142
vt 0.252919 0.492338
vt 0.293703 0.436504
vt 0.240241 0.420015
vt 0.598184 0.121486
vt 0.533483 0.495382
vt 0.585394 0.396524
vt 0.536246 0.464052
vt 0.951813 0.094156
vt 0.954187 0.212294
vt 0.972669 0.081787
vt 0.394823 0.365412
vt 0.877374 0.074812
vt 0.877374 0.000000
vt 0.816790 0.032477
vt 0.942821 0.621628
vt 0.915354 0.652333
vt 0.942821 0.689368
vt 0.189084 0.527394
vt 0.196785 0.640912
vt 0.282584 0.546520
vt 0.524207 0.214529
vt 0.486949 0.291922
vt 0.645704 0.232006
vt 0.830945 0.291193
vt 0.818736 0.203455
vt 0.739061 0.291193
vt 0.168380 0.832128
vt 0.168380 0.697851
vt 0.097360 0.745228
vt 0.338911 0.557694
vt 0.290597 0.890483
vt 0.317584 0.957855
vt 0.325779 0.848057
vt 0.904823 0.637799
vt 0.985046 0.293985
vt 0.957793 0.348513
vt 0.988236 0.408916
vt 0.384512 0.768582
vt 0.359774 0.758045
vt 0.392199 0.817439
vt 0.420750 0.398864
vt 0.435187 0.433633
vt 0.514112 0.511479
vt 0.397350 0.613512
vt 0.428806 0.847632
vt 0.455476 0.816747
vt 0.416092 0.818580
vt 0.400941 0.382982
vt 0.346456 0.389480
vt 0.373787 0.526628
vt 0.207600 0.314833
vt 0.206602 0.369113
vt 0.590367 0.648902
vt 0.517552 0.634405
vt 0.346456 0.625848
vt 0.956889 0.629180
vt 0.982702 0.644798
vt 0.982702 0.489461
vt 0.274640 0.386539
vt 0.426584 0.787415
vt 0.531685 0.688242
vt 0.346456 0.957368
vt 0.382896 0.957368
vt 0.379352 0.857929
vt 0.189084 0.883436
vt 0.202651 0.979793
vt 0.217982 0.982915
vt 0.956889 0.489461
vt 0.932149 0.595186
vt 0.956889 0.621628
vt 0.977447 0.877447
vt 0.952562 0.887473
vt 0.955610 0.992602
vt 0.122768 0.884034
vt 0.097360 0.887220
vt 0.146082 0.946238
vt 0.897985 0.897943
vt 0.914412 0.793578
vt 0.901461 0.748346
vt 0.866719 0.291922
vt 0.843220 0.466626
vt 0.887260 0.302669
vt 0.189084 0.028508
vt 0.025474 0.292088
vt 0.541723 0.395467
vt 0.914234 0.215535
vt 0.947564 0.257165
vt 0.926570 0.119416
vt 0.124750 0.000000
vt 0.922740 0.948333
vt 0.952144 0.958385
vt 0.952144 0.832813
vt 0.586658 0.649448
vt 0.549550 0.844668
vt 0.587790 0.839784
vt 0.916518 0.832813
vt 0.952562 0.823797
vt 0.925684 0.717009
vt 0.046839 0.196465
vt 0.332079 0.007220
vt 0.280134 0.000000
vt 0.887260 0.489461
vt 0.412813 0.001876
vt 0.972669 0.164737
vt 0.994122 0.236270
vt 0.985149 0.079747
vt 0.025865 0.184485
vt 0.000000 0.272608
vt 0.375000 0.568644
vt 0.346456 0.382982
vt 0.322473 0.848057
vt 0.306506 0.722228
vt 0.290597 0.825957
vt 0.843219 0.295674
vt 0.775251 0.993737
vt 0.775251 0.900043
vt 0.758833 0.980645
vt 0.528835 0.857625
vt 0.997687 0.811357
vt 0.997687 0.691507
vt 0.974920 0.806612
vt 0.952562 0.694841
vt 0.957098 0.843308
vt 0.974920 0.691507
vt 0.549550 0.883036
vt 0.982702 0.576058
vt 0.997211 0.592634
vt 0.997211 0.489461
vt 0.590367 0.291922
vt 0.217982 0.876613
vt 0.346314 0.842523
vt 0.329267 0.695423
vt 0.977447 0.983667
vt 0.915354 0.501796
vt 0.431622 0.167592
vt 0.490558 0.883036
vt 0.460665 0.909168
vt 0.486953 0.970660
vt 0.799459 0.291922
vt 0.288959 0.975166
vt 0.288959 0.876613
vt 0.271027 0.969170
vt 0.382896 0.889792
vt 0.410503 0.986508
vt 0.410503 0.857929
vn 0.0878 -0.9941 0.0638
vn 0.0562 -0.9976 -0.0408
vn -0.0336 -0.9941 -0.1033
vn -0.8264 -0.5631 0.0035
vn -0.2587 -0.5631 0.7849
vn 0.6713 -0.5582 0.4877
vn 0.7914 -0.2075 -0.5750
vn -0.2564 -0.5582 -0.7891
vn -0.7914 0.2075 0.5750
vn 0.2564 0.5582 0.7891
vn 0.8264 0.5631 -0.0035
vn 0.2587 0.5631 -0.7849
vn -0.6713 0.5582 -0.4877
vn -0.0562 0.9976 0.0408
vn 0.0336 0.9941 0.1033
vn -0.0878 0.9941 -0.0638
vn -0.1406 -0.9710 0.1935
vn 0.0717 -0.9925 0.0987
vn 0.1843 -0.9737 -0.1339
vn 0.4849 -0.8004 -0.3523
vn -0.4849 0.8004 -0.3523
vn -0.0717 0.9925 0.0987
vn 0.1406 0.9710 0.1935
vn -0.1843 0.9737 -0.1339
vn 0.1971 -0.9699 0.1432
vn 0.0770 -0.9914 -0.1060
vn 0.0960 -0.9906 -0.0972
vn -0.7975 -0.6033 -0.0012
vn 0.5137 -0.7725 0.3732
vn -0.6099 0.4841 0.6274
vn -0.4004 0.7883 -0.4672
vn -0.1289 0.9637 0.2338
vn 0.1500 0.9669 -0.2064
vn -0.0178 0.9909 -0.1331
vn -0.0633 -0.9788 0.1948
vn -0.2048 -0.9788 0.0000
vn 0.1657 -0.9788 0.1204
vn 0.1657 -0.9788 -0.1204
vn -0.0633 -0.9788 -0.1948
vn -0.8203 -0.5720 0.0000
vn -0.2535 -0.5720 0.7801
vn 0.6636 -0.5720 0.4821
vn 0.6636 -0.5720 -0.4821
vn -0.2535 -0.5720 -0.7801
vn -0.6636 0.5720 0.4821
vn 0.2535 0.5720 0.7801
vn 0.8203 0.5720 0.0000
vn 0.2535 0.5720 -0.7801
vn -0.6636 0.5720 -0.4821
vn -0.1657 0.9788 0.1204
vn 0.0633 0.9788 0.1948
vn 0.2048 0.9788 0.0000
vn 0.0633 0.9788 -0.1948
vn -0.1657 0.9788 -0.1204
vn -0.0646 -0.9779 0.1988
vn -0.2090 -0.9779 0.0000
vn 0.1691 -0.9779 0.1229
vn 0.1691 -0.9779 -0.1229
vn -0.0646 -0.9779 -0.1988
vn -0.8260 -0.5637 0.0000
vn -0.2552 -0.5637 0.7855
vn 0.6682 -0.5637 0.4855
vn 0.6682 -0.5637 -0.4855
vn -0.2552 -0.5637 -0.7855
vn -0.6682 0.5637 0.4855
vn 0.2552 0.5637 0.7855
vn 0.8260 0.5637 0.0000
vn 0.2552 0.5637 -0.7855
vn -0.6682 0.5637 -0.4855
vn -0.1691 0.9779 0.1229
vn 0.0646 0.9779 0.1988
vn 0.2090 0.9779 0.0000
vn 0.0646 0.9779 -0.1988
vn -0.1691 0.9779 -0.1229
vn 0.1070 -0.9912 0.0778
vn 0.0690 -0.9964 -0.0501
vn -0.0409 -0.9912 -0.1258
vn -0.8591 -0.5117 0.0122
vn -0.2770 -0.5117 0.8133
vn 0.8015 -0.1359 0.5823
vn 0.7026 -0.4957 -0.5105
vn -0.2684 -0.4957 -0.8260
vn -0.8015 0.1359 0.5823
vn 0.2770 0.5117 0.8133
vn 0.8591 0.5117 0.0122
vn 0.2684 0.4957 -0.8260
vn -0.7026 0.4957 -0.5105
vn -0.1070 0.9912 0.0778
vn 0.0409 0.9912 -0.1258
vn -0.0690 0.9964 -0.0501
vn 0.4272 -0.2048 0.8806
vn 0.4897 0.3422 0.8020
vn 0.0771 0.7020 0.7080
vn 0.0545 -0.9903 -0.1279
vn -0.3500 0.8147 -0.4623
vn 0.0980 -0.9114 0.3996
vn -0.6490 0.7500 0.1274
vn 0.4026 0.7377 -0.5419
vn -0.0197 -0.9855 0.1686
vn 0.5993 0.0374 -0.7996
vn 0.5139 0.7594 0.3989
vn -0.6414 0.7647 0.0614
vn 0.0310 0.9004 -0.4340
vn -0.4557 0.8466 -0.2749
vn 0.4389 0.8972 -0.0488
vn -0.0649 -0.9872 0.1454
vn 0.0799 -0.9933 0.0830
vn 0.1801 0.7858 0.5917
vn -0.0003 -0.9962 -0.0866
vn 0.2532 0.8137 -0.5232
vn -0.5174 0.4017 -0.7556
vn -0.3655 0.6565 0.6599
vn 0.4157 0.8013 0.4302
vn 0.5947 -0.7727 0.2219
vn -0.6745 -0.7381 0.0142
vn 0.4269 -0.2118 -0.8791
vn 0.0582 -0.8494 0.5245
vn -0.6074 -0.7862 -0.1142
vn 0.2977 0.9221 -0.2473
vn 0.2283 0.9670 -0.1133
vn -0.3467 0.9071 0.2387
vn 0.5634 0.0737 -0.8229
vn -0.3974 -0.9121 0.1009
vn -0.6365 0.1384 -0.7588
vn 0.5329 0.7661 -0.3594
vn 0.1219 0.9718 0.2018
vn 0.8523 0.0381 0.5217
vn -0.6267 0.5669 -0.5346
vn 0.2477 0.9261 -0.2845
vn -0.6128 -0.1903 0.7670
vn -0.1686 0.1320 0.9768
vn -0.1067 -0.1445 0.9837
vn 0.9481 0.0858 0.3063
vn -0.1966 0.0815 0.9771
vn 0.6681 0.0817 -0.7396
vn -0.1050 -0.9939 -0.0351
vn -0.7369 -0.3769 0.5611
vn 0.0080 0.0491 0.9988
vn -0.5215 0.7805 0.3447
vn -0.2010 -0.9091 -0.3649
vn -0.3184 0.8594 0.4000
vn 0.9595 0.0807 0.2699
vn -0.9227 0.0736 0.3785
vn -0.9275 0.0710 0.3671
vn 0.9362 0.0974 0.3378
vn -0.2784 -0.9569 0.0828
vn -0.4667 0.8407 0.2746
vn -0.2752 -0.0627 -0.9593
vn 0.9424 0.0707 0.3269
vn 0.4441 0.0277 -0.8955
vn -0.1928 0.1096 0.9751
vn 0.9440 0.0740 0.3216
vn -0.1767 0.9398 -0.2924
vn -0.1062 0.6185 -0.7786
vn 0.5368 0.7565 -0.3736
vn 0.3207 -0.9424 0.0949
vn -0.5584 0.0344 -0.8289
vn 0.5594 0.8151 0.1508
vn -0.1498 0.0571 -0.9871
vn -0.0685 0.9951 0.0714
vn 0.7267 0.0257 -0.6865
vn -0.9043 -0.0642 0.4220
vn 0.3326 0.9104 0.2459
vn -0.0165 -0.9110 -0.4122
vn 0.0792 -0.9472 -0.3108
vn -0.7439 0.0901 -0.6622
vn 0.7491 0.1785 -0.6380
vn -0.6175 0.0912 0.7813
vn -0.1536 0.9860 -0.0645
vn 0.6248 0.0491 -0.7793
vn 0.1154 -0.9932 -0.0150
vn 0.3371 0.0664 -0.9391
vn 0.4009 -0.9149 0.0474
vn -0.4828 0.0492 -0.8743
vn -0.0403 0.3910 -0.9195
vn 0.5419 -0.7180 0.4367
s off
f 1/1/1 3/2/1 2/3/1
f 1/4/2 4/5/2 3/6/2
f 1/1/3 5/7/3 4/8/3
f 1/1/4 9/9/4 5/7/4
f 2/10/5 6/11/5 1/12/5
f 3/13/6 7/14/6 2/10/6
f 4/5/7 10/15/7 3/6/7
f 5/16/8 8/17/8 4/18/8
f 1/19/9 6/20/9 9/21/9
f 2/10/10 7/14/10 6/11/10
f 3/22/11 10/23/11 7/24/11
f 4/25/12 8/26/12 10/23/12
f 5/16/13 9/27/13 8/17/13
f 6/28/14 10/23/14 9/29/14
f 7/24/15 10/23/15 6/28/15
f 9/29/16 10/23/16 8/26/16
f 11/30/17 13/31/17 15/32/17
f 11/30/18 14/33/18 13/31/18
f 11/34/19 12/35/19 14/36/19
f 12/35/20 16/37/20 14/36/20
f 11/38/21 15/39/21 12/40/21
f 13/41/22 16/42/22 15/43/22
f 14/44/23 16/42/23 13/41/23
f 15/43/24 16/42/24 12/45/24
f 17/46/25 18/47/25 21/48/25
f 17/49/26 19/50/26 18/51/26
f 17/46/27 20/52/27 19/53/27
f 17/46/28 22/54/28 20/52/28
f 18/55/29 23/56/29 21/57/29
f 17/58/30 21/59/30 22/60/30
f 20/61/31 22/62/31 19/63/31
f 21/64/32 23/65/32 22/66/32
f 19/67/33 23/65/33 18/68/33
f 22/66/34 23/65/34 19/67/34
f 24/69/35 26/70/35 25/71/35
f 25/71/36 29/72/36 24/69/36
f 24/69/37 27/73/37 26/70/37
f 24/74/38 28/75/38 27/76/38
f 24/69/39 29/72/39 28/77/39
f 25/71/40 34/78/40 29/72/40
f 26/79/41 30/80/41 25/81/41
f 27/82/42 31/83/42 26/79/42
f 28/75/43 32/84/43 27/76/43
f 29/85/44 33/86/44 28/87/44
f 25/88/45 30/89/45 34/90/45
f 26/79/46 31/83/46 30/80/46
f 27/91/47 32/92/47 31/93/47
f 28/94/48 33/95/48 32/92/48
f 29/85/49 34/96/49 33/86/49
f 30/97/50 35/98/50 34/99/50
f 31/93/51 35/98/51 30/97/51
f 32/92/52 35/98/52 31/93/52
f 33/95/53 35/98/53 32/92/53
f 34/99/54 35/98/54 33/95/54
f 36/100/55 38/101/55 37/102/55
f 37/102/56 41/103/56 36/100/56
f 36/100/57 39/104/57 38/101/57
f 36/105/58 40/106/58 39/107/58
f 36/100/59 41/103/59 40/108/59
f 37/102/60 46/109/60 41/103/60
f 38/110/61 42/111/61 37/112/61
f 39/113/62 43/114/62 38/110/62
f 40/106/63 44/115/63 39/107/63
f 41/116/64 45/117/64 40/118/64
f 37/119/65 42/120/65 46/121/65
f 38/110/66 43/114/66 42/111/66
f 39/122/67 44/123/67 43/124/67
f 40/125/68 45/126/68 44/123/68
f 41/116/69 46/127/69 45/117/69
f 42/128/70 47/129/70 46/130/70
f 43/124/71 47/129/71 42/128/71
f 44/123/72 47/129/72 43/124/72
f 45/126/73 47/129/73 44/123/73
f 46/130/74 47/129/74 45/126/74
f 48/131/75 50/132/75 49/133/75
f 48/134/76 51/135/76 50/136/76
f 48/131/77 52/137/77 51/138/77
f 48/131/78 56/139/78 52/137/78
f 49/140/79 53/141/79 48/142/79
f 50/143/80 57/144/80 49/140/80
f 51/135/81 54/145/81 50/136/81
f 52/146/82 55/147/82 51/148/82
f 48/149/83 53/150/83 56/151/83
f 49/140/84 57/144/84 53/141/84
f 50/152/85 54/153/85 57/154/85
f 51/155/86 55/156/86 54/153/86
f 52/146/87 56/157/87 55/147/87
f 53/150/88 57/158/88 56/151/88
f 55/156/89 57/154/89 54/153/89
f 56/159/90 57/154/90 55/156/90
f 63/160/91 86/161/91 84/162/91
f 63/160/92 87/163/92 86/161/92
f 61/164/93 67/165/93 62/166/93
f 69/167/94 76/168/94 97/169/94
f 58/170/95 69/171/95 65/172/95
f 71/173/96 76/174/96 75/175/96
f 65/176/97 68/177/97 61/178/97
f 66/179/98 70/180/98 58/181/98
f 97/169/99 76/168/99 68/182/99
f 77/183/100 88/184/100 78/185/100
f 93/186/101 101/187/101 63/188/101
f 68/177/102 72/189/102 61/178/102
f 69/190/103 73/191/103 65/192/103
f 58/193/104 74/194/104 69/195/104
f 62/196/105 96/197/105 71/198/105
f 67/199/106 76/168/106 96/200/106
f 72/201/107 76/168/107 67/199/107
f 61/202/108 72/203/108 67/204/108
f 75/205/109 76/206/109 70/207/109
f 66/179/110 75/208/110 70/180/110
f 74/209/111 95/210/111 69/211/111
f 96/212/112 62/166/112 67/165/112
f 75/208/113 66/179/113 71/198/113
f 95/213/114 70/214/114 76/215/114
f 85/216/115 86/217/115 87/218/115
f 78/185/116 81/219/116 80/220/116
f 79/221/117 77/183/117 80/220/117
f 86/217/118 85/216/118 83/222/118
f 64/223/119 59/224/119 93/225/119
f 63/226/120 60/227/120 85/228/120
f 73/229/121 97/230/121 68/177/121
f 58/231/122 77/183/122 66/232/122
f 83/222/123 84/233/123 86/217/123
f 60/234/124 83/235/124 85/236/124
f 74/237/125 58/181/125 70/180/125
f 60/238/126 59/224/126 98/239/126
f 64/240/127 89/241/127 99/242/127
f 59/243/128 100/244/128 90/245/128
f 64/246/129 92/247/129 82/248/129
f 63/249/130 91/250/130 94/251/130
f 92/252/131 94/253/131 82/254/131
f 79/255/132 80/256/132 81/257/132
f 79/258/133 62/259/133 77/260/133
f 84/162/134 61/261/134 91/262/134
f 78/185/135 88/184/135 89/263/135
f 72/201/136 68/182/136 76/168/136
f 60/264/137 63/265/137 101/266/137
f 62/267/138 91/262/138 61/261/138
f 93/268/139 63/269/139 102/270/139
f 98/271/140 88/272/140 83/273/140
f 78/274/141 79/275/141 81/276/141
f 91/262/142 62/267/142 79/277/142
f 61/178/143 84/278/143 83/279/143
f 61/178/144 83/279/144 65/176/144
f 77/260/145 62/259/145 66/280/145
f 95/281/146 76/168/146 69/167/146
f 73/229/147 68/177/147 65/176/147
f 73/282/148 69/283/148 97/284/148
f 91/262/149 79/277/149 78/285/149
f 78/185/150 80/220/150 77/183/150
f 84/162/151 91/262/151 63/160/151
f 91/262/152 78/285/152 89/286/152
f 60/238/153 93/225/153 59/224/153
f 63/226/154 85/228/154 87/287/154
f 74/237/155 70/180/155 95/288/155
f 89/289/156 94/290/156 91/291/156
f 58/170/157 65/172/157 83/292/157
f 66/179/158 62/196/158 71/198/158
f 90/293/159 100/294/159 99/295/159
f 64/223/160 100/296/160 59/224/160
f 88/297/161 98/298/161 59/299/161
f 60/300/162 98/301/162 83/302/162
f 64/223/163 99/303/163 100/296/163
f 90/304/164 99/305/164 88/306/164
f 88/184/165 99/307/165 89/263/165
f 59/243/166 90/245/166 88/308/166
f 64/309/167 82/310/167 89/289/167
f 63/249/168 94/251/168 92/311/168
f 92/247/169 64/246/169 63/312/169
f 88/184/170 77/183/170 58/231/170
f 76/168/171 71/313/171 96/200/171
f 93/314/172 60/315/172 101/316/172
f 82/310/173 94/290/173 89/289/173
f 58/170/174 83/292/174 88/317/174
f 93/318/175 102/319/175 64/320/175
f 64/321/176 102/322/176 63/323/176
