# Blender v2.79 (sub 0) OBJ File: 'Tree-LOD1.blend'
# www.blender.org
o Icosphere_Icosphere.005
v 1.019284 1.726051 0.383378
v 1.279223 1.819636 -0.190914
v 0.912648 1.819636 0.075419
v 1.279223 1.819636 0.579958
v 1.645798 1.819636 0.313625
v 1.539162 1.913221 0.005666
v -1.451277 2.825273 0.831346
v -1.109374 2.867457 1.178005
v -0.779678 2.867456 0.938466
v -1.003723 2.909641 0.506180
v 0.449736 2.768337 0.468281
v 0.570031 2.820080 -0.297543
v 0.193801 2.820080 -0.024195
v 0.959323 2.871822 0.098045
v -1.220291 2.942340 0.190911
v -0.750482 3.104357 -0.843422
v -1.409569 3.104357 -0.364566
v -0.750482 3.104357 0.542574
v -0.091395 3.104356 0.063718
v -0.280673 3.266373 -0.491759
v 0.250616 2.465397 -0.668644
v 1.352026 2.627303 -1.210264
v 0.708158 2.627304 -1.678063
v 0.064290 2.627304 -1.210263
v 0.708158 2.627304 -0.324070
v 1.165700 2.789210 -0.668644
v 0.261803 2.510483 1.221574
v 0.851581 2.616370 0.933297
v 0.502455 2.616370 0.679641
v 0.153328 2.616371 0.933297
v 0.502455 2.616370 1.413820
v 0.743107 2.722257 1.221574
v -0.026875 0.220708 -0.414923
v -0.219690 2.331955 -0.101976
v -0.197566 0.270987 0.292522
v 0.246132 0.111965 0.362113
v -0.050449 2.285005 0.154427
v -0.439888 0.080946 -0.296141
v -0.466987 0.015807 0.616700
v 0.239787 -0.001845 -0.499175
v 0.523636 0.069111 -0.079184
v 0.915830 -0.027075 -0.211244
v 0.009452 -0.042978 -0.025250
v 0.265422 1.321710 -0.101976
v 0.250198 1.565529 -0.101976
v 0.186909 1.445052 0.106495
v 0.992770 1.679649 0.227886
v -0.221464 2.156924 -0.132406
v -0.959500 2.654878 0.579818
v 0.005028 2.251663 -0.284252
v 0.156194 2.113828 0.119345
v 0.570698 2.379712 0.570144
v 0.180047 -0.170629 -0.926769
v 0.695166 0.025113 0.743013
v -0.947557 -0.040352 -0.328456
v -0.599296 2.541898 -0.883514
v 0.481048 2.379567 -0.717308
v -0.544180 2.847252 -0.182043
v 0.082325 2.385266 -0.020354
vt 0.007223 0.747607
vt 0.097360 0.729072
vt 0.037188 0.697851
vt 0.929435 0.000000
vt 0.877374 0.004295
vt 0.929435 0.053775
vt 0.019627 0.797943
vt 0.097360 0.797377
vt 0.889011 0.044135
vt 0.929435 0.035915
vt 0.950311 0.071884
vt 0.950311 0.000000
vt 0.789884 0.707389
vt 0.698600 0.751839
vt 0.789884 0.777963
vt 0.711422 0.702254
vt 0.711422 0.794635
vt 0.604337 0.829934
vt 0.678976 0.875386
vt 0.678976 0.814056
vt 0.737514 0.900043
vt 0.695260 0.914184
vt 0.737514 0.947745
vt 0.878983 0.810490
vt 0.803980 0.876087
vt 0.878983 0.874287
vt 0.808659 0.806076
vt 0.217982 0.931209
vt 0.271027 0.931209
vt 0.240913 0.883553
vt 0.670306 0.700652
vt 0.592041 0.733985
vt 0.611321 0.793857
vt 0.290597 0.667263
vt 0.204625 0.680759
vt 0.290597 0.739949
vt 0.210249 0.757296
vt 0.602815 0.381449
vt 0.765611 0.348118
vt 0.657302 0.291922
vt 0.739061 0.194207
vt 0.645704 0.201192
vt 0.739061 0.290622
vt 0.625954 0.471932
vt 0.765611 0.471064
vt 0.666984 0.272374
vt 0.921096 0.356583
vt 0.957793 0.421310
vt 0.957793 0.291922
vt 0.177407 0.520903
vt 0.012544 0.600926
vt 0.177407 0.647932
vt 0.036428 0.511755
vt 0.036428 0.678036
vt 0.658177 0.087421
vt 0.816790 0.054863
vt 0.711052 0.000000
vt 0.782668 0.805696
vt 0.691322 0.812948
vt 0.747286 0.891395
vt 0.680296 0.175826
vt 0.816790 0.174890
vt 0.914234 0.081787
vt 0.872775 0.121118
vt 0.885075 0.215964
vt 0.146082 0.895246
vt 0.182418 0.958445
vt 0.182418 0.832128
vt 0.763563 0.518759
vt 0.661107 0.502992
vt 0.763563 0.642773
vt 0.625785 0.672108
vt 0.592708 0.563153
vt 0.798307 0.738687
vt 0.882053 0.721064
vt 0.825089 0.691507
vt 0.540745 0.883036
vt 0.490558 0.889090
vt 0.520725 0.931606
vt 0.807770 0.786666
vt 0.882053 0.785726
vt 0.436831 0.883036
vt 0.411409 0.904220
vt 0.419579 0.955318
vt 0.799893 0.943880
vt 0.839926 0.950669
vt 0.789885 0.904606
vt 0.839926 0.899357
vt 0.207448 0.865891
vt 0.227901 0.776627
vt 0.189628 0.807194
vt 0.282390 0.850358
vt 0.516532 0.027604
vt 0.509696 0.122809
vt 0.628839 0.030649
vt 0.080156 0.848320
vt 0.095486 0.964810
vt 0.095486 0.808370
vt 0.279985 0.279997
vt 0.372937 0.357729
vt 0.353477 0.276142
vt 0.271590 0.526440
vt 0.293703 0.436504
vt 0.245116 0.415271
vt 0.633286 0.203124
vt 0.533483 0.495382
vt 0.585394 0.396524
vt 0.536246 0.464052
vt 0.951813 0.094156
vt 0.954187 0.212294
vt 0.972669 0.081787
vt 0.189084 0.527394
vt 0.196785 0.640912
vt 0.524207 0.214529
vt 0.486949 0.291922
vt 0.830945 0.291193
vt 0.818736 0.203455
vt 0.739061 0.291193
vt 0.168380 0.832128
vt 0.168380 0.697851
vt 0.097360 0.745228
vt 0.338911 0.557694
vt 0.290597 0.890483
vt 0.317584 0.957855
vt 0.325779 0.848057
vt 0.985046 0.293985
vt 0.957793 0.348513
vt 0.988236 0.408916
vt 0.514112 0.511479
vt 0.421045 0.399574
vt 0.400941 0.382982
vt 0.346456 0.389480
vt 0.374832 0.562817
vt 0.590367 0.648902
vt 0.517552 0.634405
vt 0.397350 0.613512
vt 0.346456 0.625848
vt 0.390250 0.809182
vt 0.956889 0.629180
vt 0.982702 0.644798
vt 0.982702 0.489461
vt 0.426584 0.787415
vt 0.455476 0.816747
vt 0.531685 0.688242
vt 0.346456 0.957368
vt 0.382896 0.957368
vt 0.379352 0.857929
vt 0.977447 0.877447
vt 0.952562 0.887473
vt 0.964755 0.988860
vt 0.866719 0.291922
vt 0.843220 0.466626
vt 0.887260 0.302669
vt 0.035151 0.321706
vt 0.189084 0.028508
vt 0.017630 0.286090
vt 0.541723 0.395467
vt 0.914234 0.215535
vt 0.947564 0.257165
vt 0.926570 0.119416
vt 0.124750 0.000000
vt 0.586658 0.649448
vt 0.549550 0.844668
vt 0.587790 0.839784
vt 0.916518 0.832813
vt 0.952562 0.823797
vt 0.925684 0.717009
vt 0.046839 0.196465
vt 0.332079 0.007220
vt 0.280134 0.000000
vt 0.887260 0.489461
vt 0.412813 0.001876
vt 0.206907 0.352551
vt 0.025865 0.184485
vt 0.423758 0.836096
vt 0.346456 0.382982
vt 0.765611 0.617156
vt 0.820935 0.642642
vt 0.843219 0.295674
vt 0.532815 0.862506
vt 0.952562 0.694841
vt 0.957098 0.843308
vt 0.974920 0.691507
vt 0.590367 0.291922
vt 0.346314 0.842523
vt 0.312629 0.715017
vt 0.300412 0.832762
vt 0.946528 0.610555
vt 0.956889 0.489461
vt 0.915354 0.501796
vt 0.431622 0.167592
vt 0.490558 0.883036
vt 0.460665 0.909168
vt 0.486953 0.970660
vt 0.799459 0.291922
vn 0.1690 -0.9578 0.2326
vn 0.1362 -0.9857 -0.0990
vn -0.1690 -0.9578 -0.2326
vn 0.5685 -0.7114 -0.4131
vn -0.5685 0.7114 0.4131
vn -0.1362 0.9857 0.0990
vn 0.1690 0.9578 0.2326
vn -0.1690 0.9578 -0.2326
vn 0.0513 -0.9962 0.0706
vn 0.0843 -0.9866 -0.1400
vn -0.1592 0.9866 0.0369
vn 0.0513 0.9962 0.0706
vn 0.1711 -0.9845 -0.0396
vn -0.0552 -0.9956 -0.0759
vn -0.0906 0.9845 0.1505
vn -0.0552 0.9956 -0.0759
vn 0.1632 -0.9607 0.2246
vn 0.1309 -0.9868 -0.0951
vn -0.1632 -0.9607 -0.2246
vn 0.5524 -0.7306 -0.4013
vn -0.5524 0.7306 0.4013
vn -0.1309 0.9868 0.0951
vn 0.1632 0.9607 0.2246
vn -0.1632 0.9607 -0.2246
vn 0.2201 -0.9623 0.1599
vn 0.0867 -0.9891 -0.1193
vn -0.1666 -0.9590 -0.2293
vn 0.5621 -0.7193 0.4084
vn -0.5621 0.7193 0.4084
vn -0.2201 0.9623 0.1599
vn 0.1666 0.9590 -0.2293
vn -0.0867 0.9891 -0.1193
vn 0.2633 -0.9456 0.1913
vn 0.1056 -0.9837 -0.1453
vn -0.1974 -0.9419 -0.2717
vn 0.6405 -0.6108 0.4654
vn -0.6405 0.6108 0.4654
vn -0.2633 0.9456 0.1913
vn 0.1974 0.9419 -0.2717
vn -0.1056 0.9837 -0.1453
vn 0.2119 -0.7069 -0.6748
vn 0.1880 -0.4396 0.8783
vn -0.6658 0.7454 0.0334
vn 0.4826 0.7497 -0.4528
vn -0.0256 -0.9971 0.0723
vn 0.6688 0.0418 -0.7423
vn 0.3367 0.6834 0.6478
vn 0.1770 0.9841 0.0157
vn -0.6015 -0.5439 0.5851
vn 0.2154 -0.9449 0.2464
vn 0.1483 0.7134 0.6848
vn -0.0003 -0.9962 -0.0866
vn 0.1464 0.9544 -0.2602
vn -0.4045 0.6403 -0.6530
vn 0.5947 -0.7727 0.2219
vn 0.1573 -0.8228 0.5461
vn 0.3516 0.9342 -0.0610
vn 0.5373 0.0955 -0.8379
vn -0.1350 -0.8723 0.4700
vn -0.6379 0.1382 -0.7576
vn 0.3807 0.9226 0.0629
vn 0.7808 0.4405 0.4431
vn -0.3789 -0.6016 0.7032
vn 0.9492 0.0994 0.2986
vn 0.2086 0.0517 0.9766
vn 0.9295 0.2635 -0.2581
vn -0.7884 -0.4278 0.4421
vn -0.1137 0.1146 0.9869
vn 0.0491 -0.8786 -0.4750
vn -0.3113 0.8607 0.4029
vn 0.9989 0.0457 0.0071
vn -0.8733 0.0965 0.4776
vn -0.9302 0.0694 0.3605
vn 0.8402 0.1825 0.5106
vn -0.3075 -0.9485 0.0761
vn -0.2357 0.9698 0.0622
vn 0.9499 0.0377 0.3102
vn 0.4026 0.0251 -0.9150
vn -0.0386 0.8960 -0.4423
vn 0.5211 0.7665 -0.3754
vn -0.3081 0.1070 -0.9453
vn -0.4789 0.8317 -0.2808
vn -0.9043 -0.0642 0.4220
vn -0.0297 -0.9493 -0.3131
vn 0.7647 -0.1180 -0.6335
vn -0.3221 0.9059 0.2749
vn 0.6603 0.0379 -0.7500
vn 0.2026 -0.9747 -0.0944
vn 0.2588 0.0129 -0.9659
vn -0.5734 0.0616 -0.8169
s off
f 1/1/1 5/2/1 4/3/1
f 1/4/2 2/5/2 5/6/2
f 1/1/3 3/7/3 2/8/3
f 2/5/4 6/9/4 5/6/4
f 1/10/5 4/11/5 3/12/5
f 4/13/6 6/14/6 3/15/6
f 5/16/7 6/14/7 4/13/7
f 3/15/8 6/14/8 2/17/8
f 7/18/9 9/19/9 8/20/9
f 7/21/10 10/22/10 9/23/10
f 8/24/11 10/25/11 7/26/11
f 9/27/12 10/25/12 8/24/12
f 11/28/13 12/29/13 14/30/13
f 11/31/14 13/32/14 12/33/14
f 11/34/15 14/35/15 13/36/15
f 13/36/16 14/35/16 12/37/16
f 15/38/17 19/39/17 18/40/17
f 15/41/18 16/42/18 19/43/18
f 15/38/19 17/44/19 16/45/19
f 16/42/20 20/46/20 19/43/20
f 15/47/21 18/48/21 17/49/21
f 18/50/22 20/51/22 17/52/22
f 19/53/23 20/51/23 18/50/23
f 17/52/24 20/51/24 16/54/24
f 21/55/25 22/56/25 25/57/25
f 21/58/26 23/59/26 22/60/26
f 21/55/27 24/61/27 23/62/27
f 22/63/28 26/64/28 25/65/28
f 21/66/29 25/67/29 24/68/29
f 25/69/30 26/70/30 24/71/30
f 23/72/31 26/70/31 22/73/31
f 24/71/32 26/70/32 23/72/32
f 27/74/33 28/75/33 31/76/33
f 27/77/34 29/78/34 28/79/34
f 27/74/35 30/80/35 29/81/35
f 28/82/36 32/83/36 31/84/36
f 27/85/37 31/86/37 30/87/37
f 31/86/38 32/88/38 30/87/38
f 29/89/39 32/90/39 28/91/39
f 30/92/40 32/90/40 29/89/40
f 38/93/41 43/94/41 55/95/41
f 41/96/42 43/97/42 42/98/42
f 38/99/43 39/100/43 35/101/43
f 41/102/44 40/103/44 33/104/44
f 55/95/45 43/94/45 39/105/45
f 44/106/46 50/107/46 45/108/46
f 59/109/47 58/110/47 37/111/47
f 36/112/48 54/113/48 41/102/48
f 36/114/49 43/94/49 54/115/49
f 39/105/50 43/94/50 36/114/50
f 35/116/51 39/117/51 36/118/51
f 42/119/52 43/120/52 40/121/52
f 41/102/53 42/122/53 40/103/53
f 33/123/54 53/124/54 38/125/54
f 53/126/55 40/127/55 43/128/55
f 46/129/56 44/106/56 47/130/56
f 37/131/57 34/132/57 49/133/57
f 33/134/58 44/106/58 41/135/58
f 48/136/59 37/137/59 49/138/59
f 34/139/60 48/140/60 49/141/60
f 34/142/61 50/143/61 56/144/61
f 59/145/62 51/146/62 57/147/62
f 37/148/63 51/149/63 52/150/63
f 46/151/64 36/152/64 44/153/64
f 37/154/65 35/155/65 51/156/65
f 45/108/66 50/107/66 51/157/66
f 34/158/67 37/159/67 58/160/67
f 36/161/68 51/156/68 35/155/68
f 56/162/69 50/163/69 48/164/69
f 45/165/70 46/166/70 47/167/70
f 51/156/71 36/161/71 46/168/71
f 35/101/72 37/169/72 48/170/72
f 35/101/73 48/170/73 38/99/73
f 44/153/74 36/152/74 41/171/74
f 53/172/75 43/94/75 38/93/75
f 55/173/76 39/100/76 38/99/76
f 51/156/77 46/168/77 45/174/77
f 45/108/78 47/130/78 44/106/78
f 34/142/79 59/175/79 50/143/79
f 33/104/80 40/103/80 53/176/80
f 33/177/81 38/178/81 48/179/81
f 59/175/82 57/180/82 50/143/82
f 34/181/83 56/182/83 48/183/83
f 50/107/84 57/184/84 51/157/84
f 59/185/85 52/186/85 51/187/85
f 52/188/86 59/189/86 37/190/86
f 50/107/87 44/106/87 33/134/87
f 43/94/88 41/191/88 54/115/88
f 59/192/89 34/193/89 58/194/89
f 33/177/90 48/179/90 50/195/90
