# Blender v2.79 (sub 0) OBJ File: ''
# www.blender.org
o Icosphere
v 0.723600 4.190118 0.525721
v 0.399430 3.942472 0.290201
v 0.399430 3.942472 -0.290199
v 0.723600 4.190118 -0.525719
v -0.152566 3.942473 -0.469556
v -0.493722 3.942470 0.000001
v -0.894425 4.190118 0.000001
v -0.276385 4.190118 -0.850639
v -0.152566 3.942473 0.469558
v -0.276385 4.190118 0.850641
v -0.493721 1.436898 0.000000
v -0.152565 1.436901 -0.469557
v -0.152564 0.833575 -0.469557
v -0.493720 0.833572 0.000000
v 0.894425 5.084548 0.000001
v 0.276385 5.084548 0.850641
v -0.723600 5.084548 0.525721
v -0.723600 5.084548 -0.525719
v 0.276385 5.084548 -0.850639
v 0.000000 5.637333 0.000001
v -0.152565 3.315781 0.469558
v -0.152565 2.825800 0.469557
v -0.152565 1.436901 0.469557
v 0.399431 1.436900 0.290200
v 0.399430 2.956862 0.290200
v 0.399430 3.403181 0.290201
v 0.399430 3.421874 -0.290199
v 0.399430 2.893703 -0.290200
v 0.399431 1.436900 -0.290200
v -0.493722 3.278800 0.000001
v -0.493722 2.775244 0.000000
v 0.399432 0.833574 -0.290200
v 0.399432 0.833574 0.290200
v -0.152564 0.833575 0.469557
v 1.825051 0.284066 -0.945135
v 1.825051 0.284066 -1.525535
v -1.612139 -0.234449 1.384856
v -1.953296 -0.234452 0.915299
v -1.612140 0.368877 1.384856
v -1.953297 0.368874 0.915299
v 1.825052 -0.319259 -0.945135
v 1.825052 -0.319259 -1.525535
v 2.500573 3.198093 -0.103620
v 2.500573 3.179399 0.476779
v 2.500573 2.733080 0.476779
v 2.500573 2.669922 -0.103620
v -2.160833 3.023641 0.657140
v -2.501990 2.986660 0.187583
v -2.501990 2.483104 0.187583
v -2.160833 2.533661 0.657140
vn 0.6554 -0.5863 0.4761
vn 0.7236 -0.4472 -0.5257
vn 0.7236 -0.4472 0.5257
vn -0.8101 -0.5863 0.0000
vn -0.2764 -0.4472 -0.8507
vn -0.2503 -0.5863 -0.7704
vn -0.2764 -0.4472 0.8507
vn -0.2503 -0.5863 0.7704
vn 0.6554 -0.5863 -0.4761
vn -0.9369 0.2568 -0.2373
vn -0.2482 -0.5957 -0.7639
vn -0.3478 -0.6669 -0.6590
vn 0.8944 0.4472 0.0000
vn 0.2764 0.4472 0.8507
vn -0.8944 -0.4472 -0.0000
vn -0.7236 0.4472 0.5257
vn -0.7236 0.4472 -0.5257
vn 0.2764 0.4472 -0.8507
vn -0.0000 1.0000 0.0000
vn -0.0663 0.1856 0.9804
vn 0.0138 -0.1799 0.9836
vn 0.3801 -0.2949 0.8767
vn 0.4853 -0.2727 -0.8308
vn 0.6173 0.3213 -0.7181
vn -0.3090 -0.0000 -0.9511
vn 0.5242 0.2700 -0.8077
vn -0.7480 -0.4182 -0.5154
vn -0.8015 0.3991 -0.4453
vn 0.2953 -0.6207 0.7263
vn 0.4699 -0.6589 0.5873
vn 0.8807 0.3431 0.3266
vn 0.4103 0.3911 -0.8238
vn 0.7061 0.1403 0.6940
vn -0.0189 -0.7342 0.6786
vn -0.6538 -0.7214 -0.2283
vn -0.9144 0.3857 -0.1226
vn -0.2317 0.3831 0.8942
vn -0.0751 0.2374 0.9685
vn 0.2555 -0.6782 -0.6890
vn -0.4321 -0.6811 -0.5911
vn 0.4292 -0.8208 0.3769
vn 0.6265 0.5572 -0.5451
vn 0.5323 -0.5702 0.6257
vn 0.5608 -0.6501 -0.5126
vn 0.5794 0.5302 0.6191
vn 0.4698 0.3043 0.8287
vn -0.7931 0.4977 -0.3511
vn -0.2733 -0.6319 0.7253
vn -0.3739 0.5745 0.7281
vn -0.7157 -0.6154 -0.3302
s 1
f 2//1 4//2 1//3
f 6//4 8//5 5//6
f 2//1 10//7 9//8
f 3//9 8//5 4//2
f 11//10 13//11 14//12
f 1//3 4//2 15//13
f 10//7 1//3 16//14
f 7//15 10//7 17//16
f 8//5 7//15 18//17
f 4//2 8//5 19//18
f 1//3 15//13 16//14
f 10//7 16//14 17//16
f 7//15 17//16 18//17
f 8//5 18//17 19//18
f 4//2 19//18 15//13
f 16//14 15//13 20//19
f 17//16 16//14 20//19
f 18//17 17//16 20//19
f 19//18 18//17 20//19
f 15//13 19//18 20//19
f 21//20 22//21 25//22
f 6//4 10//7 7//15
f 28//23 29//24 12//25
f 6//4 21//20 9//8
f 2//1 27//26 3//9
f 5//6 31//27 30//28
f 13//11 33//29 34//30
f 29//24 35//31 36//32
f 29//24 13//11 12//25
f 24//33 34//30 33//29
f 14//12 37//34 38//35
f 40//36 37//34 39//37
f 34//30 39//37 37//34
f 11//10 39//37 23//38
f 14//12 40//36 11//10
f 35//31 42//39 36//32
f 33//29 35//31 24//33
f 32//40 41//41 33//29
f 32//40 36//32 42//39
f 43//42 45//43 46//44
f 25//22 46//44 45//43
f 28//23 24//33 29//24
f 28//23 43//42 46//44
f 25//22 44//45 26//46
f 26//46 43//42 27//26
f 48//47 50//48 47//49
f 31//27 48//47 30//28
f 31//27 23//38 22//21
f 30//28 47//49 21//20
f 31//27 50//48 49//50
f 22//21 47//49 50//48
f 2//1 3//9 4//2
f 6//4 7//15 8//5
f 2//1 1//3 10//7
f 3//9 5//6 8//5
f 11//10 12//25 13//11
f 26//46 2//1 9//8
f 26//46 9//8 21//20
f 23//38 24//33 22//21
f 24//33 25//22 22//21
f 25//22 26//46 21//20
f 6//4 9//8 10//7
f 12//25 5//6 28//23
f 5//6 3//9 27//26
f 5//6 27//26 28//23
f 6//4 30//28 21//20
f 2//1 26//46 27//26
f 30//28 6//4 5//6
f 5//6 12//25 31//27
f 12//25 11//10 31//27
f 34//30 14//12 13//11
f 13//11 32//40 33//29
f 29//24 24//33 35//31
f 29//24 32//40 13//11
f 24//33 23//38 34//30
f 14//12 34//30 37//34
f 40//36 38//35 37//34
f 34//30 23//38 39//37
f 11//10 40//36 39//37
f 14//12 38//35 40//36
f 35//31 41//41 42//39
f 33//29 41//41 35//31
f 32//40 42//39 41//41
f 32//40 29//24 36//32
f 43//42 44//45 45//43
f 25//22 28//23 46//44
f 28//23 25//22 24//33
f 28//23 27//26 43//42
f 25//22 45//43 44//45
f 26//46 44//45 43//42
f 48//47 49//50 50//48
f 31//27 49//50 48//47
f 31//27 11//10 23//38
f 30//28 48//47 47//49
f 31//27 22//21 50//48
f 22//21 21//20 47//49
