# Blender v2.79 (sub 0) OBJ File: ''
# www.blender.org
o Icosphere
v 0.723600 4.190118 0.525721
v 0.399430 3.942472 0.290201
v 0.399430 3.942472 -0.290199
v 0.723600 4.190118 -0.525719
v -0.152566 3.942473 -0.469556
v -0.493722 3.942470 0.000001
v -0.894425 4.190118 0.000001
v -0.276385 4.190118 -0.850639
v -0.152566 3.942473 0.469558
v -0.276385 4.190118 0.850641
v -0.493721 1.436898 0.000000
v -0.152565 1.436901 -0.469557
v -0.152564 0.833575 -0.469557
v -0.493720 0.833572 0.000000
v 0.894425 5.084548 0.000001
v 0.276385 5.084548 0.850641
v -0.723600 5.084548 0.525721
v -0.723600 5.084548 -0.525719
v 0.276385 5.084548 -0.850639
v 0.000000 5.637333 0.000001
v -0.152565 3.315781 0.469558
v -0.152565 2.825800 0.469557
v -0.152565 1.436901 0.469557
v 0.399431 1.436900 0.290200
v 0.399430 2.956862 0.290200
v 0.399430 3.403181 0.290201
v 0.399430 3.421874 -0.290199
v 0.399430 2.893703 -0.290200
v 0.399431 1.436900 -0.290200
v -0.493722 3.278800 0.000001
v -0.493722 2.775244 0.000000
v 0.399432 0.833574 -0.290200
v 0.399432 0.833574 0.290200
v -0.152564 0.833575 0.469557
v 1.283539 0.707107 -1.114908
v 1.283539 0.707107 -1.695308
v -0.379076 -0.099977 2.324722
v -0.720233 -0.099980 1.855165
v -0.379077 0.503349 2.324722
v -0.720234 0.503346 1.855165
v 1.283540 0.103782 -1.114908
v 1.283540 0.103782 -1.695308
v 2.550407 3.123941 0.513653
v 2.550407 3.105247 1.094052
v 2.550407 2.658927 1.094052
v 2.550407 2.595770 0.513653
v -2.165509 3.160200 0.275584
v -2.506666 3.123219 -0.193973
v -2.506666 2.619663 -0.193973
v -2.165509 2.670220 0.275584
vn 0.6554 -0.5863 0.4761
vn 0.7236 -0.4472 -0.5257
vn 0.7236 -0.4472 0.5257
vn -0.8101 -0.5863 0.0000
vn -0.2764 -0.4472 -0.8507
vn -0.2503 -0.5863 -0.7704
vn -0.2764 -0.4472 0.8507
vn -0.2503 -0.5863 0.7704
vn 0.6554 -0.5863 -0.4761
vn -0.9819 0.1275 -0.1402
vn -0.2482 -0.5957 -0.7639
vn -0.6968 -0.6233 -0.3551
vn 0.8944 0.4472 0.0000
vn 0.2764 0.4472 0.8507
vn -0.8944 -0.4472 -0.0000
vn -0.7236 0.4472 0.5257
vn -0.7236 0.4472 -0.5257
vn 0.2764 0.4472 -0.8507
vn -0.0000 1.0000 0.0000
vn -0.1013 0.1528 0.9831
vn -0.0582 -0.1495 0.9870
vn 0.2810 -0.3491 0.8940
vn 0.5491 -0.2188 -0.8066
vn 0.6091 0.3691 -0.7020
vn -0.3090 -0.0000 -0.9511
vn 0.5862 0.2181 -0.7802
vn -0.7328 -0.4711 -0.4910
vn -0.7450 0.4503 -0.4922
vn 0.4419 -0.6164 0.6517
vn 0.6831 -0.7079 0.1798
vn 0.9117 0.3588 0.2002
vn 0.2663 0.4306 -0.8624
vn 0.7357 0.0981 0.6702
vn -0.5698 -0.8218 -0.0021
vn -0.8807 0.3703 0.2955
vn 0.2262 -0.6555 0.7205
vn 0.2042 0.4171 0.8856
vn -0.0565 0.3553 0.9330
vn 0.1891 -0.6389 -0.7457
vn -0.5176 -0.7092 -0.4786
vn 0.4433 -0.8525 0.2771
vn 0.6961 0.5606 -0.4485
vn 0.4482 -0.5645 0.6931
vn 0.5973 -0.6834 -0.4198
vn 0.4969 0.5148 0.6986
vn 0.4241 0.3611 0.8305
vn -0.7463 0.5118 -0.4255
vn -0.3568 -0.6188 0.6998
vn -0.4178 0.6177 0.6663
vn -0.7009 -0.5907 -0.3997
s 1
f 2//1 4//2 1//3
f 6//4 8//5 5//6
f 2//1 10//7 9//8
f 3//9 8//5 4//2
f 11//10 13//11 14//12
f 1//3 4//2 15//13
f 10//7 1//3 16//14
f 7//15 10//7 17//16
f 8//5 7//15 18//17
f 4//2 8//5 19//18
f 1//3 15//13 16//14
f 10//7 16//14 17//16
f 7//15 17//16 18//17
f 8//5 18//17 19//18
f 4//2 19//18 15//13
f 16//14 15//13 20//19
f 17//16 16//14 20//19
f 18//17 17//16 20//19
f 19//18 18//17 20//19
f 15//13 19//18 20//19
f 21//20 22//21 25//22
f 6//4 10//7 7//15
f 28//23 29//24 12//25
f 6//4 21//20 9//8
f 2//1 27//26 3//9
f 5//6 31//27 30//28
f 13//11 33//29 34//30
f 29//24 35//31 36//32
f 29//24 13//11 12//25
f 24//33 34//30 33//29
f 34//30 38//34 14//12
f 40//35 37//36 39//37
f 34//30 39//37 37//36
f 23//38 40//35 39//37
f 14//12 40//35 11//10
f 35//31 42//39 36//32
f 33//29 35//31 24//33
f 32//40 41//41 33//29
f 32//40 36//32 42//39
f 43//42 45//43 46//44
f 25//22 46//44 45//43
f 28//23 24//33 29//24
f 28//23 43//42 46//44
f 25//22 44//45 26//46
f 26//46 43//42 27//26
f 48//47 50//48 47//49
f 31//27 48//47 30//28
f 31//27 23//38 22//21
f 30//28 47//49 21//20
f 31//27 50//48 49//50
f 22//21 47//49 50//48
f 2//1 3//9 4//2
f 6//4 7//15 8//5
f 2//1 1//3 10//7
f 3//9 5//6 8//5
f 11//10 12//25 13//11
f 26//46 2//1 9//8
f 26//46 9//8 21//20
f 23//38 24//33 22//21
f 24//33 25//22 22//21
f 25//22 26//46 21//20
f 6//4 9//8 10//7
f 12//25 5//6 28//23
f 5//6 3//9 27//26
f 5//6 27//26 28//23
f 6//4 30//28 21//20
f 2//1 26//46 27//26
f 30//28 6//4 5//6
f 5//6 12//25 31//27
f 12//25 11//10 31//27
f 34//30 14//12 13//11
f 13//11 32//40 33//29
f 29//24 24//33 35//31
f 29//24 32//40 13//11
f 24//33 23//38 34//30
f 34//30 37//36 38//34
f 40//35 38//34 37//36
f 34//30 23//38 39//37
f 23//38 11//10 40//35
f 14//12 38//34 40//35
f 35//31 41//41 42//39
f 33//29 41//41 35//31
f 32//40 42//39 41//41
f 32//40 29//24 36//32
f 43//42 44//45 45//43
f 25//22 28//23 46//44
f 28//23 25//22 24//33
f 28//23 27//26 43//42
f 25//22 45//43 44//45
f 26//46 44//45 43//42
f 48//47 49//50 50//48
f 31//27 49//50 48//47
f 31//27 11//10 23//38
f 30//28 48//47 47//49
f 31//27 22//21 50//48
f 22//21 21//20 47//49
